<?xml version="1.0" standalone="no"?>
<!DOCTYPE svg PUBLIC "-//W3C//DTD SVG 20010904//EN"
 "http://www.w3.org/TR/2001/REC-SVG-20010904/DTD/svg10.dtd">
<svg version="1.0" xmlns="http://www.w3.org/2000/svg"
 width="871.000000pt" height="871.000000pt" viewBox="0 0 871.000000 871.000000"
 preserveAspectRatio="xMidYMid meet">
<metadata>
Created by potrace 1.14, written by Peter Selinger 2001-2017
</metadata>
<g transform="translate(0.000000,871.000000) scale(0.100000,-0.100000)"
fill="#000000" stroke="none">
<path d="M4395 8701 c-8 -8 -64 -20 -112 -23 -7 -1 -13 -6 -13 -11 0 -6 -3 -7
-7 -4 -3 4 -12 2 -20 -4 -7 -6 -13 -9 -13 -6 0 6 -62 -32 -87 -53 -7 -6 -13
-7 -13 -3 -1 4 -7 -3 -15 -17 -8 -14 -14 -22 -15 -17 0 4 -8 -1 -18 -10 -11
-10 -17 -21 -15 -24 1 -4 -4 -9 -12 -13 -8 -3 -15 -12 -15 -20 0 -8 -4 -16 -9
-18 -5 -1 -18 -32 -29 -68 -22 -72 -22 -197 0 -211 16 -10 -7 -39 -31 -39 -9
0 -23 -6 -30 -12 -11 -11 -12 -10 -6 0 6 11 3 12 -13 3 -11 -6 -32 -11 -47
-11 -14 0 -24 -4 -21 -9 3 -5 0 -8 -7 -8 -24 2 -87 -15 -87 -24 0 -5 -3 -8 -7
-7 -10 2 -47 -10 -98 -32 -22 -9 -59 -26 -82 -36 -24 -10 -43 -22 -43 -28 0
-5 -3 -6 -6 -3 -4 4 -19 -1 -33 -11 -14 -10 -38 -24 -53 -32 -16 -7 -28 -17
-28 -22 0 -4 -6 -8 -13 -8 -8 0 -22 -9 -32 -20 -10 -11 -20 -18 -23 -15 -3 2
-15 -7 -28 -20 -13 -14 -27 -25 -31 -25 -4 0 -34 -26 -65 -59 -32 -32 -60 -56
-63 -53 -3 3 -5 0 -5 -6 0 -7 -6 -12 -14 -12 -7 0 -22 -11 -32 -25 -10 -14
-24 -25 -31 -25 -7 0 -12 -3 -11 -7 2 -5 -13 -24 -32 -43 -35 -35 -67 -96 -73
-136 -2 -12 -22 -41 -45 -64 -23 -24 -42 -50 -42 -58 0 -9 -3 -12 -7 -9 -6 7
-48 -54 -44 -62 2 -2 -2 -7 -9 -11 -6 -4 -12 -17 -13 -28 -1 -12 -4 -22 -7
-22 -3 0 -11 -9 -18 -21 -11 -17 -11 -20 0 -13 10 6 11 5 1 -7 -7 -9 -15 -26
-17 -40 -3 -13 -5 -24 -6 -24 -5 0 -32 -136 -33 -167 -1 -10 -5 -18 -9 -18 -4
0 -7 -3 -6 -7 1 -8 -10 -89 -19 -128 -2 -11 -5 -40 -6 -65 -1 -25 -6 -48 -12
-52 -6 -5 -5 -8 2 -8 9 0 10 -7 3 -24 -5 -15 -5 -27 3 -35 7 -7 8 -11 0 -11
-11 0 -12 -108 0 -126 3 -6 4 -14 0 -18 -4 -3 -7 -33 -7 -65 -1 -50 -5 -62
-26 -80 -14 -11 -28 -20 -33 -21 -11 0 -117 -108 -117 -118 0 -8 -11 -23 -50
-69 -5 -7 -10 -19 -10 -27 0 -8 -7 -22 -16 -30 -8 -9 -13 -16 -10 -16 3 0 -1
-19 -9 -41 -8 -23 -15 -52 -15 -65 0 -13 -3 -24 -8 -24 -4 0 -7 -18 -6 -40 0
-23 -4 -40 -10 -40 -7 0 -7 -3 -1 -8 13 -9 15 -52 2 -52 -5 0 -4 -7 3 -15 10
-12 10 -15 -1 -15 -11 0 -11 -3 1 -11 11 -8 12 -12 2 -16 -6 -2 -9 -10 -5 -16
4 -7 8 -26 9 -43 1 -18 5 -45 9 -60 5 -16 9 -40 10 -54 1 -14 4 -26 5 -27 1
-2 3 -6 4 -10 5 -19 36 -84 45 -95 6 -7 29 -37 51 -65 22 -29 45 -53 50 -53 6
0 10 -7 10 -15 0 -8 7 -15 15 -15 9 0 18 -7 21 -15 4 -8 12 -15 19 -15 7 0 23
-8 36 -19 13 -10 41 -24 62 -32 20 -7 37 -17 37 -23 0 -5 3 -7 6 -3 3 3 24 -1
46 -9 22 -7 44 -11 49 -8 5 3 9 1 9 -4 0 -5 10 -8 23 -8 12 1 27 0 32 -3 6 -3
15 -6 20 -6 6 0 14 -15 20 -32 5 -18 12 -33 15 -33 4 0 6 -13 5 -30 -1 -17 2
-27 8 -23 6 4 8 -4 5 -20 -3 -15 -1 -28 3 -29 5 -2 10 -15 11 -30 1 -16 6 -28
10 -28 4 0 6 -14 4 -30 -2 -17 -1 -28 2 -25 6 6 42 -125 45 -162 0 -13 5 -23
9 -23 4 0 8 -13 8 -28 0 -16 3 -32 7 -36 4 -3 8 -14 9 -24 1 -9 5 -28 9 -42 4
-14 8 -35 10 -48 2 -13 9 -30 17 -39 11 -14 11 -15 0 -9 -11 6 -11 4 -3 -10
11 -22 25 -75 22 -88 -1 -4 4 -14 10 -22 6 -8 9 -14 6 -14 -3 0 1 -20 8 -44 8
-24 11 -47 8 -50 -4 -3 -2 -6 3 -6 5 0 11 -12 12 -26 1 -14 5 -31 9 -37 4 -7
7 -22 8 -34 0 -12 3 -25 8 -29 4 -4 7 -18 7 -31 0 -12 4 -23 8 -23 5 0 7 -13
6 -30 -1 -16 2 -30 7 -30 5 0 9 -10 9 -22 0 -19 8 -48 28 -108 7 -21 11 -42
14 -67 1 -13 5 -23 8 -23 3 0 7 -15 8 -32 2 -18 7 -35 12 -36 6 -2 8 -7 5 -11
-2 -5 4 -38 15 -75 10 -36 16 -66 13 -66 -3 0 0 -7 7 -15 6 -8 9 -19 6 -24 -4
-5 -2 -12 3 -16 5 -3 8 -14 6 -25 -2 -12 0 -18 6 -15 5 4 9 -10 9 -29 0 -20 4
-36 8 -36 4 0 9 -10 10 -22 3 -39 8 -63 15 -75 4 -6 8 -23 9 -37 1 -14 7 -26
12 -26 5 0 7 -2 4 -6 -3 -3 3 -37 14 -77 11 -40 20 -82 21 -94 0 -13 5 -23 10
-23 4 0 5 -9 2 -20 -4 -12 -2 -20 5 -20 8 0 10 -10 8 -25 -3 -14 -1 -25 4 -25
5 0 6 -4 3 -10 -3 -5 -2 -10 4 -10 5 0 8 -9 6 -20 -2 -11 0 -20 4 -20 5 0 12
-25 16 -55 3 -30 11 -55 17 -55 6 0 9 -2 6 -5 -5 -5 -1 -28 18 -108 2 -9 6
-25 8 -35 2 -9 8 -28 14 -42 5 -14 7 -31 5 -37 -3 -7 -1 -13 4 -13 8 0 13 -23
16 -67 0 -7 5 -13 10 -13 5 0 7 -7 4 -15 -4 -8 -3 -16 1 -19 4 -2 9 -19 10
-37 1 -18 7 -38 12 -44 5 -7 7 -15 3 -18 -3 -4 -2 -7 4 -7 5 0 10 -6 10 -12 2
-26 12 -75 26 -126 9 -28 13 -52 10 -52 -3 0 0 -7 7 -15 7 -9 10 -18 7 -22 -4
-3 -2 -12 3 -18 6 -7 11 -25 12 -41 1 -16 5 -31 9 -34 4 -3 10 -21 13 -40 3
-19 10 -50 15 -67 5 -18 7 -33 4 -33 -3 0 0 -7 7 -15 7 -8 10 -15 6 -15 -3 0
-1 -11 4 -25 5 -14 12 -38 15 -53 8 -38 13 -57 15 -57 3 0 12 -49 14 -70 0
-11 4 -23 8 -26 5 -3 9 -17 10 -32 1 -15 5 -27 8 -27 3 0 7 -14 8 -32 2 -18 6
-35 10 -38 4 -3 8 -18 10 -35 5 -53 5 -55 15 -55 5 0 7 -7 4 -15 -4 -8 -2 -17
3 -20 5 -3 7 -12 3 -20 -3 -8 -1 -15 5 -15 6 0 9 -8 7 -17 -1 -10 2 -29 7 -43
5 -14 12 -33 14 -43 6 -25 13 -54 20 -80 3 -12 7 -30 7 -39 1 -10 4 -18 7 -18
5 0 10 -22 13 -62 1 -10 5 -18 10 -18 4 0 5 -5 2 -10 -4 -6 -2 -16 3 -23 11
-13 12 -17 12 -48 0 -11 4 -18 8 -15 4 2 7 -11 7 -30 -1 -19 2 -34 7 -34 4 0
8 -10 8 -23 0 -13 3 -27 7 -31 4 -3 8 -14 9 -22 2 -9 8 -39 15 -68 7 -28 14
-54 15 -58 1 -5 2 -9 3 -10 2 -2 4 -14 7 -28 2 -14 9 -37 15 -52 6 -15 8 -31
5 -37 -4 -5 -2 -12 4 -16 6 -4 8 -11 5 -16 -4 -5 -1 -9 6 -9 7 0 9 -3 6 -7 -4
-3 -1 -13 6 -21 10 -13 9 -14 -2 -7 -11 6 -12 5 -5 -6 10 -16 14 -30 21 -76 3
-18 9 -33 15 -33 5 0 7 -4 4 -9 -3 -4 -1 -23 5 -42 9 -30 15 -54 23 -94 1 -5
7 -19 13 -30 5 -11 8 -26 6 -32 -7 -21 23 -43 58 -43 18 0 30 3 26 6 -3 3 3
15 13 27 11 11 17 24 14 29 -3 5 0 15 6 23 7 8 9 15 5 15 -4 0 -1 8 6 17 12
15 12 16 -1 8 -12 -6 -13 -5 -2 6 6 7 12 23 12 36 0 13 4 23 9 23 5 0 8 8 6
18 -1 9 0 22 4 27 3 6 6 15 8 20 1 6 6 25 12 43 5 17 7 32 4 32 -3 0 0 7 7 15
7 8 10 15 6 15 -4 0 1 14 10 31 11 23 12 29 2 23 -10 -6 -11 -5 -1 7 6 8 11
16 12 19 0 6 7 29 17 55 4 11 6 23 6 28 -1 4 4 23 12 41 8 19 12 37 9 40 -3 3
0 12 7 21 7 8 10 15 6 15 -3 0 -1 11 4 25 5 14 12 36 14 48 10 46 15 63 24 88
6 15 8 30 5 33 -4 3 0 6 7 6 7 0 11 3 8 6 -4 3 -2 20 3 37 6 18 12 39 14 47 1
8 9 35 16 60 7 25 13 52 13 60 1 8 4 20 8 26 4 6 10 26 13 44 3 18 10 41 16
51 5 11 7 19 5 19 -3 0 2 19 10 43 9 23 18 56 21 72 3 17 8 35 13 40 4 6 6 18
5 28 -2 9 2 17 8 17 5 0 8 3 5 6 -4 3 -2 20 3 37 6 18 12 39 14 48 2 8 10 38
18 66 9 28 13 54 10 57 -4 3 0 6 7 6 7 0 11 3 8 6 -4 3 3 36 14 72 10 37 20
72 21 77 2 6 5 15 8 20 4 6 5 18 4 28 -2 9 2 17 8 17 5 0 8 3 5 6 -4 3 -2 20
3 37 15 49 21 70 26 99 3 15 9 26 13 23 4 -2 6 7 4 20 -1 14 2 27 7 31 5 3 7
9 4 14 -3 5 -1 11 5 15 6 4 8 10 5 15 -3 4 1 20 9 35 8 15 12 34 9 41 -3 8 -1
14 4 14 5 0 10 8 11 18 2 24 10 66 12 70 2 1 4 7 5 12 1 6 4 12 5 15 1 3 3 9
4 14 0 5 4 13 9 17 11 11 8 26 -4 18 -6 -3 -4 5 5 18 9 14 13 28 9 31 -3 4 -1
7 6 7 7 0 9 5 6 10 -4 6 -1 17 5 25 7 8 10 15 7 15 -4 0 0 17 7 38 7 20 12 45
10 55 -1 9 2 17 7 17 5 0 9 9 9 20 0 11 7 36 15 56 10 24 11 33 2 28 -9 -5 -9
-3 1 7 6 7 12 21 12 32 0 10 4 16 8 13 5 -3 7 11 6 30 -2 20 1 32 6 29 6 -4
10 2 11 12 0 10 3 27 5 38 3 11 6 30 7 42 1 11 5 19 10 16 4 -2 8 7 8 21 2 35
3 39 13 54 4 7 5 16 2 19 -3 3 0 15 7 27 6 11 13 28 14 36 2 16 5 28 27 107 7
28 11 54 8 57 -3 3 1 6 8 6 7 0 11 2 8 6 -3 3 1 26 9 52 8 26 16 56 18 67 2
11 8 33 14 48 6 16 9 33 5 38 -3 5 0 9 7 9 7 0 10 3 6 6 -3 3 1 24 9 47 8 23
12 47 9 54 -2 8 2 16 9 19 8 3 15 13 15 22 0 9 4 35 11 57 6 22 13 51 16 65 3
14 9 29 14 34 5 5 6 15 3 24 -4 9 -2 13 4 9 7 -5 9 0 6 13 -3 11 -1 26 5 33 6
6 13 26 16 42 14 75 32 135 38 129 4 -4 7 4 6 17 -2 32 13 89 22 89 4 0 6 11
5 25 -2 14 0 25 4 25 4 0 8 12 9 27 1 15 6 29 10 32 4 3 7 16 6 29 -1 12 3 22
7 22 5 0 9 13 9 28 0 16 3 32 7 36 4 3 8 12 9 19 1 7 7 32 14 57 7 25 14 52
15 60 2 8 4 17 6 20 1 3 3 10 3 15 1 6 8 21 15 34 11 19 11 22 -1 15 -10 -6
-11 -5 -2 7 7 8 15 30 19 49 4 19 13 38 19 42 7 5 6 8 -4 8 -11 0 -12 2 -3 8
7 5 14 21 16 38 2 16 8 38 14 49 6 11 9 28 8 38 -2 9 0 17 4 17 6 0 10 17 13
58 1 6 5 12 10 12 4 0 8 11 8 25 0 14 5 25 11 25 5 0 8 4 5 8 -3 5 18 9 47 11
76 2 87 4 87 14 0 5 6 7 13 4 6 -2 24 2 39 10 15 7 29 13 30 13 11 -1 68 26
68 32 0 4 8 8 19 8 40 0 264 248 254 282 -2 4 2 8 7 8 6 0 10 6 10 14 0 8 5
16 11 18 5 2 11 10 13 18 2 8 9 29 17 45 16 35 25 365 10 365 -5 0 -8 11 -7
25 2 13 -1 22 -5 19 -5 -3 -9 2 -9 11 0 16 -47 115 -59 125 -3 3 -7 12 -9 20
-2 8 -8 17 -13 18 -5 2 -9 10 -9 18 0 9 -4 12 -10 9 -5 -3 -10 0 -10 7 0 7
-11 25 -24 40 -14 14 -22 29 -18 33 4 4 2 5 -4 3 -7 -1 -23 9 -37 24 -14 15
-28 24 -31 21 -4 -4 -5 25 -4 64 2 39 6 69 9 67 4 -2 6 11 5 29 -1 17 0 60 4
94 3 40 2 64 -5 67 -5 2 -4 5 3 5 8 1 10 9 6 27 -5 21 -4 25 6 19 10 -6 11 -4
4 6 -5 8 -10 30 -11 49 -5 110 -19 288 -23 300 -1 3 -3 10 -5 15 -1 6 -3 12
-4 15 -2 3 -4 19 -6 35 -6 55 -13 90 -24 118 -6 16 -9 33 -5 38 3 5 0 9 -5 9
-6 0 -11 11 -11 25 0 14 -4 25 -9 25 -6 0 -10 8 -10 18 -1 35 -4 52 -10 52 -8
0 -45 89 -43 103 1 4 -2 7 -8 7 -5 0 -10 6 -10 13 0 15 -102 171 -133 205 -27
28 -92 91 -130 125 -25 23 -27 28 -16 48 9 17 9 24 0 27 -6 2 -11 9 -11 16 0
11 -34 46 -46 46 -3 0 -20 10 -37 22 -17 12 -27 17 -23 10 4 -7 -10 -2 -31 10
-21 12 -39 26 -41 30 -2 4 -10 8 -18 8 -9 0 -12 5 -9 10 3 6 1 10 -5 10 -6 0
-30 12 -53 28 -68 44 -81 51 -107 64 -14 7 -28 17 -32 23 -4 5 -8 6 -8 1 0 -5
-8 -2 -17 7 -10 8 -22 16 -28 17 -5 2 -21 7 -35 13 -14 6 -28 10 -32 9 -5 -1
-8 3 -8 8 0 6 -6 10 -14 10 -8 0 -34 9 -59 19 -25 11 -55 21 -68 23 -13 2 -27
6 -30 10 -3 5 -17 9 -32 10 -15 1 -27 6 -27 10 0 4 -3 7 -7 7 -5 -1 -17 -1
-28 0 -17 1 -18 3 -5 11 8 5 11 10 6 10 -5 0 -3 6 3 13 6 8 8 17 4 20 -3 4 -2
7 4 7 6 0 9 14 8 30 -1 17 2 30 7 30 7 0 7 4 1 13 -6 6 -9 29 -8 50 1 20 -2
37 -7 37 -5 0 -6 5 -3 10 3 6 3 16 -2 23 -4 6 -8 19 -10 27 -1 8 -7 16 -13 18
-5 2 -8 7 -5 12 3 5 -2 16 -11 24 -8 9 -12 16 -9 16 14 0 -94 98 -114 105 -12
3 -21 11 -21 16 0 5 -9 9 -21 9 -11 0 -17 5 -14 10 4 6 -5 10 -20 10 -14 0
-40 7 -56 16 -17 8 -33 13 -37 10 -3 -3 -11 -1 -18 5 -7 6 -14 6 -18 0 -3 -5
-15 -7 -26 -4 -11 3 -18 8 -16 12 3 4 -4 7 -14 7 -10 0 -16 -4 -14 -8 3 -4 -2
-8 -11 -8 -9 0 -13 5 -10 10 8 13 2 13 -10 1z"/>
</g>
</svg>
